<?xml version="1.0" encoding="UTF-8" standalone="no"?>
<svg
   xmlns:dc="http://purl.org/dc/elements/1.1/"
   xmlns:cc="http://creativecommons.org/ns#"
   xmlns:rdf="http://www.w3.org/1999/02/22-rdf-syntax-ns#"
   xmlns:svg="http://www.w3.org/2000/svg"
   xmlns="http://www.w3.org/2000/svg"
   version="1.1"
   id="svg2"
   viewBox="0 0 633.14875 124.39999"
   height="124.4"
   width="633.14874">
  <defs
     id="defs4" />
  <metadata
     id="metadata7">
    <rdf:RDF>
      <cc:Work
         rdf:about="">
        <dc:format>image/svg+xml</dc:format>
        <dc:type
           rdf:resource="http://purl.org/dc/dcmitype/StillImage" />
        <dc:title></dc:title>
      </cc:Work>
    </rdf:RDF>
  </metadata>
  <g
     transform="translate(9.4057146,-752.41931)"
     id="layer1">
    <g
       id="text4136"
       style="font-style:normal;font-variant:normal;font-weight:normal;font-stretch:normal;font-size:40px;line-height:125%;font-family:Exo;-inkscape-font-specification:Exo;letter-spacing:0px;word-spacing:0px;fill:#ffffff;fill-opacity:1;stroke:none;stroke-width:1px;stroke-linecap:butt;stroke-linejoin:miter;stroke-opacity:1">
      <path
         id="path4317"
         style="font-style:normal;font-variant:normal;font-weight:bold;font-stretch:normal;font-size:80px;font-family:Exo;-inkscape-font-specification:'Exo Bold';fill:#ffffff;fill-opacity:1"
         d="m 10.594285,835.2193 0,-58.56 11.2,0 0,25.12 20.08,0 0,-25.12 11.2,0 0,58.56 -11.2,0 0,-23.2 -20.08,0 0,23.2 -11.2,0 z" />
      <path
         id="path4319"
         style="font-style:normal;font-variant:normal;font-weight:bold;font-stretch:normal;font-size:80px;font-family:Exo;-inkscape-font-specification:'Exo Bold';fill:#ffffff;fill-opacity:1"
         d="m 60.491785,794.8193 q 7.28,-2.88 19.44,-2.88 7.36,0 11.28,3.12 4,3.04 4,10.56 l 0,29.6 -8.88,0 -2.32,-4.64 q -0.32,0.56 -2.08,1.76 -1.68,1.12 -4.72,2.24 -3.04,1.12 -5.84,1.12 -5.92,0 -9.12,-3.36 -3.2,-3.44 -3.2,-7.92 l 0,-4 q 0,-5.12 3.04,-8.4 3.04,-3.28 9.36,-3.2 6.32,0 9.44,0 3.12,0 3.12,-0.08 0,-1.28 0,-1.92 0,-0.72 0,-0.8 0,-3.2 -1.36,-4.16 -1.36,-1.04 -5.44,-1.04 -4.08,0 -16.72,0.88 l 0,-6.88 z m 9.76,28 q 0,2.4 1.04,3.2 1.04,0.72 3.04,0.72 2,0 4.4,-0.8 2.48,-0.88 3.84,-1.68 l 1.44,-0.88 0,-7.76 -10.32,0.8 q -3.44,0.32 -3.44,4.32 l 0,2.08 z" />
      <path
         id="path4321"
         style="font-style:normal;font-variant:normal;font-weight:bold;font-stretch:normal;font-size:80px;font-family:Exo;-inkscape-font-specification:'Exo Bold';fill:#ffffff;fill-opacity:1"
         d="m 111.65429,792.3393 q 18.96,0 22.72,2.16 l 0,7.04 -19.28,0 q -2,0 -2.64,0.64 -0.64,0.64 -0.64,2.32 l 0,1.92 q 0,1.84 0.8,2.32 0.8,0.4 2.48,0.4 l 10.08,0 q 3.92,0 6.48,1.52 4.8,2.72 4.8,9.44 l 0,4.4 q 0,6 -2.96,8.56 -2.96,2.56 -7.44,2.56 -20.16,0 -23.68,-2.32 l 0,-6.96 20.08,0 q 2.8,0 2.8,-2.72 l 0,-2 q 0,-1.44 -0.64,-2.08 -0.56,-0.64 -2.16,-0.64 l -9.92,0 q -11.92,0 -11.92,-11.44 l 0,-3.68 q 0,-11.44 11.04,-11.44 z" />
      <path
         id="path4323"
         style="font-style:normal;font-variant:normal;font-weight:bold;font-stretch:normal;font-size:80px;font-family:Exo;-inkscape-font-specification:'Exo Bold';fill:#ffffff;fill-opacity:1"
         d="m 142.51929,835.2193 0,-62.56 11.2,0 0,34.32 2.32,0 12,-14.24 14.24,0 -15.92,18.48 15.92,24 -13.36,0 -12.88,-19.68 -2.32,0 0,19.68 -11.2,0 z" />
      <path
         id="path4325"
         style="font-style:normal;font-variant:normal;font-weight:bold;font-stretch:normal;font-size:80px;font-family:Exo;-inkscape-font-specification:'Exo Bold';fill:#ffffff;fill-opacity:1"
         d="m 193.00679,792.8993 q 2.8,-0.48 6.4,-0.48 3.6,0 5.6,0.16 2,0.08 4,0.48 2.08,0.32 3.36,1.04 1.28,0.64 2.48,1.84 1.2,1.12 1.84,2.72 1.44,3.6 1.44,8.32 0,4.64 -1.36,7.04 -2.64,4.56 -10.48,4.56 l -13.52,0 q 0,2.8 0.48,4.48 0.48,1.68 1.76,2.48 1.28,0.72 2.64,0.96 1.44,0.16 7.68,0.16 6.24,0 12,-0.88 l 0,7.6 q -3.6,1.36 -7.28,1.68 -3.6,0.32 -4.96,0.4 -1.36,0.08 -3.36,0.08 -2.64,0.08 -6.16,0.08 -7.92,0 -10.96,-4.96 -3.04,-4.96 -3.04,-16.08 0,-11.2 2.4,-15.84 2.48,-4.72 9.04,-5.84 z m 13.92,14.4 q 0,-4 -1.12,-5.12 -1.04,-1.2 -4.32,-1.2 -3.28,0 -4.56,0.24 -1.2,0.16 -2.4,1.12 -1.12,0.88 -1.44,2.72 -0.32,1.84 -0.32,3.52 0,1.6 0,1.92 l 10.64,0 q 3.52,0 3.52,-3.2 z" />
      <path
         id="path4327"
         style="font-style:normal;font-variant:normal;font-weight:bold;font-stretch:normal;font-size:80px;font-family:Exo;-inkscape-font-specification:'Exo Bold';fill:#ffffff;fill-opacity:1"
         d="m 224.23804,820.0993 0,-47.52 11.2,0 0,45.76 q 0,4.24 0.88,5.92 0.88,1.68 2.8,2.4 4.8,1.68 5.36,1.68 l 0,6.88 -9.28,0 q -5.44,0 -8.24,-3.44 -2.72,-3.52 -2.72,-11.68 z" />
      <path
         id="path4329"
         style="font-style:normal;font-variant:normal;font-weight:bold;font-stretch:normal;font-size:80px;font-family:Exo;-inkscape-font-specification:'Exo Bold';fill:#ffffff;fill-opacity:1"
         d="m 249.23804,820.0993 0,-47.52 11.2,0 0,45.76 q 0,4.24 0.88,5.92 0.88,1.68 2.8,2.4 4.8,1.68 5.36,1.68 l 0,6.88 -9.28,0 q -5.44,0 -8.24,-3.44 -2.72,-3.52 -2.72,-11.68 z" />
      <path
         id="path4331"
         style="font-style:normal;font-variant:normal;font-weight:normal;font-stretch:normal;font-size:80px;font-family:Exo;-inkscape-font-specification:Exo;fill:#ffffff;fill-opacity:1"
         d="m 274.15804,835.2193 21.52,-58.56 5.92,0 20.56,58.56 -7.04,0 -5.04,-16.32 -23.36,0 -5.28,16.32 -7.28,0 z m 14.72,-22.24 19.12,0 -9.44,-27.28 -9.68,27.28 z" />
      <path
         id="path4333"
         style="font-style:normal;font-variant:normal;font-weight:normal;font-stretch:normal;font-size:80px;font-family:Exo;-inkscape-font-specification:Exo;fill:#ffffff;fill-opacity:1"
         d="m 327.62929,825.1393 q -1.04,-4.48 -1.04,-11.2 0,-6.72 0.96,-11.12 1.04,-4.48 3.04,-6.64 2,-2.24 4.32,-3.04 2.32,-0.8 7.52,-0.8 5.2,0 16.4,2.08 l 0,4.32 q -11.12,-0.48 -15.76,-0.48 -4.64,0 -5.84,0.4 -1.2,0.4 -2.48,1.84 -2.24,2.8 -2.24,12.8 0,9.92 1.76,13.2 1.84,3.2 6.32,3.2 7.52,0 15.76,-0.64 l 3.04,-0.24 0,4.48 q -7.68,2.16 -18.8,2.32 -3.28,0 -5.6,-0.8 -2.24,-0.8 -4.32,-2.96 -2,-2.24 -3.04,-6.72 z" />
      <path
         id="path4335"
         style="font-style:normal;font-variant:normal;font-weight:normal;font-stretch:normal;font-size:80px;font-family:Exo;-inkscape-font-specification:Exo;fill:#ffffff;fill-opacity:1"
         d="m 367.14929,794.3393 q 8.64,-2.4 20.96,-2.4 5.2,0 8.56,3.04 3.44,3.04 3.44,9.28 l 0,30.96 -4.4,0 -1.52,-5.12 -1.2,0.56 q -10.4,5.04 -16.56,5.04 -4.56,0 -7.6,-2.8 -3.04,-2.8 -3.04,-7.76 l 0,-4.88 q 0,-4.88 2.8,-7.76 2.88,-2.88 7.84,-2.88 8.88,0 13.28,0 4.48,0 4.48,0 0.08,-2.64 0.08,-3.92 0,-1.36 -0.08,-1.44 0,-6.56 -6.88,-6.56 -6.88,0 -20.16,0.96 l 0,-4.32 z m 4.56,30.4 q 0,5.04 4.72,5.04 2.88,0 7.28,-1.04 4.48,-1.04 7.52,-2 l 2.96,-1.04 0,-11.44 -17.76,1.28 q -2.4,0.24 -3.6,1.68 -1.12,1.44 -1.12,3.52 l 0,4 z" />
      <path
         id="path4337"
         style="font-style:normal;font-variant:normal;font-weight:normal;font-stretch:normal;font-size:80px;font-family:Exo;-inkscape-font-specification:Exo;fill:#ffffff;fill-opacity:1"
         d="m 410.79179,828.5793 q -1.44,-3.36 -2.08,-6.8 -0.56,-3.52 -0.56,-7.84 0,-4.4 0.48,-7.84 0.56,-3.52 1.92,-6.88 2.96,-7.12 11.6,-7.12 2.96,0 7.52,0.88 4.56,0.88 8.16,2.32 l 0,-22.88 5.84,0 0,62.8 -4.24,0 -1.6,-4.72 q -2,1.44 -7.04,3.36 -4.96,1.84 -8.88,1.84 -3.92,0 -6.8,-1.92 -2.88,-1.92 -4.32,-5.2 z m 3.28,-14.4 q 0,15.6 8.08,15.6 6.64,0 15.68,-3.68 l 0,-26 q -8,-2.08 -15.68,-2.08 -4.16,0 -6.16,3.44 -1.92,3.44 -1.92,12.72 z" />
      <path
         id="path4339"
         style="font-style:normal;font-variant:normal;font-weight:normal;font-stretch:normal;font-size:80px;font-family:Exo;-inkscape-font-specification:Exo;fill:#ffffff;fill-opacity:1"
         d="m 452.52679,813.7793 q 0,-7.04 0.96,-11.28 0.96,-4.32 3.44,-6.48 2.56,-2.24 5.6,-2.88 3.12,-0.72 8,-0.72 4.96,0 7.44,0.4 2.48,0.4 4.88,1.84 2.4,1.44 3.44,4.56 1.04,3.12 1.04,8.24 0,9.76 -10.96,9.76 l -17.92,0 q 0,7.44 1.68,10 1.68,2.48 6.4,2.48 14.56,0 20,-0.8 l 0,4.48 q -7.92,2.24 -20,2.24 -8.08,0 -11.04,-4.64 -2.96,-4.64 -2.96,-17.2 z m 5.92,-2.4 17.92,0 q 5.04,0 5.04,-3.92 0,-6.16 -1.84,-7.6 -1.76,-1.52 -8.4,-1.52 -8.24,0 -9.84,1.68 -2.24,2.4 -2.56,5.28 -0.32,2.88 -0.32,6.08 z" />
      <path
         id="path4341"
         style="font-style:normal;font-variant:normal;font-weight:normal;font-stretch:normal;font-size:80px;font-family:Exo;-inkscape-font-specification:Exo;fill:#ffffff;fill-opacity:1"
         d="m 495.35804,835.2193 0,-42.48 4.16,0 1.76,5.12 q 0.48,-0.32 1.92,-1.12 1.52,-0.88 2.08,-1.2 0.64,-0.4 1.92,-1.04 1.36,-0.64 2.24,-0.88 l 2,-0.72 q 1.92,-0.64 5.44,-0.64 3.52,0 6.72,1.68 3.2,1.68 4.56,4.56 7.52,-6.24 17.12,-6.24 5.6,0 9.36,3.84 3.76,3.84 3.76,9.84 l 0,29.28 -5.92,0 0,-29.28 q 0,-3.52 -2.08,-5.6 -2,-2.16 -5.12,-2.16 -4.8,0 -8.32,0.96 -3.44,0.96 -7.36,3.52 l 0,32.56 -5.92,0 0,-29.28 q 0,-3.52 -2.08,-5.6 -2,-2.16 -5.12,-2.16 -3.04,0 -5.68,0.64 -2.56,0.64 -4,1.28 -1.44,0.56 -5.52,2.56 l 0,32.56 -5.92,0 z" />
      <path
         id="path4343"
         style="font-style:normal;font-variant:normal;font-weight:normal;font-stretch:normal;font-size:80px;font-family:Exo;-inkscape-font-specification:Exo;fill:#ffffff;fill-opacity:1"
         d="m 562.86304,792.7393 6.48,0 10.32,33.2 q 0.56,1.6 1.04,2.08 0.56,0.48 0.96,0.8 0.4,0.24 0.8,0.32 0.4,0.08 0.72,0.16 0.4,0 0.72,0 0.72,-0.16 1.04,-0.24 l 12.16,-36.32 6.64,0 -18.72,55.92 -6,8.16 -3.68,0 7.52,-21.6 q -6.88,0 -9.6,-8.8 l -10.4,-33.68 z" />
    </g>
  </g>
</svg>
